<svg id="Camada_1" data-name="Camada 1" xmlns="http://www.w3.org/2000/svg" viewBox="0 0 1826.98 228.56"><path d="M100.72,498.83q-25.74,0-36.9-11.45T52.66,455.92V285.43l48.63-9.16V447.91q0,5.71,3.72,8.72t11.73,3c1.14,0,2.47-.05,4-.15s3.15-.23,4.87-.43l-1.43,35.48a62.65,62.65,0,0,1-11.45,3.14A67.44,67.44,0,0,1,100.72,498.83Z" transform="translate(-52.66 -270.55)"/><path d="M191.37,498.83q-26,0-38.33-14t-12.3-36.9v-99h48.63V435q0,10.88,5.15,15.44t15.73,4.58a30.62,30.62,0,0,0,8-1,76.76,76.76,0,0,0,7.44-2.43l8-3.72v-99h48.91V496.54H246.29l-6-26,9.44,6.86L232,487.1a129.94,129.94,0,0,1-20.74,8.58A66.91,66.91,0,0,1,191.37,498.83Z" transform="translate(-52.66 -270.55)"/><path d="M335.48,328.33a29.74,29.74,0,0,1-15-4,30.49,30.49,0,0,1-11-10.44,28.08,28.08,0,0,1,0-28.89,30.6,30.6,0,0,1,11-10.45,29.84,29.84,0,0,1,15-4,29.41,29.41,0,0,1,15.31,4A31.49,31.49,0,0,1,361.52,285a28.08,28.08,0,0,1,0,28.89,31,31,0,0,1-10.87,10.44A29.58,29.58,0,0,1,335.48,328.33ZM311.17,496.54V348.93H359.8V496.54Z" transform="translate(-52.66 -270.55)"/><path d="M379.82,496.54l-.57-30.33,67.8-78.66H380.39V348.93h133v30.89l-66.36,78.1H514v38.62Z" transform="translate(-52.66 -270.55)"/><path d="M574,498.83a61.81,61.81,0,0,1-22.89-4.29A39.73,39.73,0,0,1,533.38,481q-6.87-9.3-6.87-23.32,0-18.87,11.59-29t35.61-15.31l42-9.44v-.57q.29-9.15-6.29-13.59t-21.74-4.43a175.67,175.67,0,0,0-18.31,1q-9.43,1-18.59,2.72l-7.44,1.43-7.15-30,9.15-3.43a228.6,228.6,0,0,1,27.46-7.72,127.42,127.42,0,0,1,26.61-2.86q29.17,0,46.91,14.73t17.74,43.34v46.91q0,7.16,3.86,10t14.73,4.29l-3.15,30.9q-4,.85-8.15,1.57a43.27,43.27,0,0,1-7,.72q-16.59,0-26.46-6.44a43.5,43.5,0,0,1-15-16.16l-6.29,5.43a64.8,64.8,0,0,1-20.88,12.88A62,62,0,0,1,574,498.83Zm14.87-35.19A37.71,37.71,0,0,0,599,462.07a41.88,41.88,0,0,0,11-5l5.72-3.15V428.46L586,436.75q-7.72,2-10.58,5.58a13.1,13.1,0,0,0-2.86,8.44q0,6.28,4.43,9.58T588.87,463.64Z" transform="translate(-52.66 -270.55)"/><path d="M876.36,498.83a62.22,62.22,0,0,1-20.17-3.58,101.76,101.76,0,0,1-21.31-10.44l-12.3-8,11.73-29.75,9.44,5.15a39.82,39.82,0,0,0,9.58,3.86,38.4,38.4,0,0,0,9.58,1.29q10,0,16.6-3.86a23.07,23.07,0,0,0,9.72-11.59q3.15-7.72,3.15-19.45T889.09,403a22.69,22.69,0,0,0-10.16-11.45q-6.85-3.71-16.87-3.72a57.37,57.37,0,0,0-9,.72,47.59,47.59,0,0,0-9,2.43l-8.29,2.58v67.22l-6.29,8.3-6.3,27.46h-36V285.43l48.63-9.16v98.41l-13.45-11.45,20-9.44a80.1,80.1,0,0,1,16.73-5.43,85.25,85.25,0,0,1,17.88-2q19.17,0,33.76,9.72A65.13,65.13,0,0,1,933.43,383q8.15,17.16,8.15,39.76,0,22.32-8.15,39.62t-23,26.89Q895.52,498.83,876.36,498.83Z" transform="translate(-52.66 -270.55)"/><path d="M1000.42,498.83a61.72,61.72,0,0,1-22.88-4.29A39.81,39.81,0,0,1,959.8,481q-6.87-9.3-6.87-23.32,0-18.87,11.59-29t35.61-15.31l42.05-9.44v-.57q.28-9.15-6.29-13.59t-21.74-4.43a175.82,175.82,0,0,0-18.31,1q-9.44,1-18.59,2.72l-7.44,1.43-7.15-30,9.15-3.43a228.74,228.74,0,0,1,27.47-7.72,127.33,127.33,0,0,1,26.6-2.86q29.17,0,46.91,14.73t17.74,43.34v46.91q0,7.16,3.86,10t14.73,4.29l-3.14,30.9c-2.68.57-5.39,1.09-8.16,1.57a43.16,43.16,0,0,1-7,.72q-16.59,0-26.46-6.44a43.47,43.47,0,0,1-15-16.16l-6.3,5.43a64.69,64.69,0,0,1-20.88,12.88A61.94,61.94,0,0,1,1000.42,498.83Zm14.87-35.19a37.71,37.71,0,0,0,10.16-1.57,41.88,41.88,0,0,0,11-5l5.72-3.15V428.46l-29.75,8.29c-5.14,1.34-8.68,3.2-10.58,5.58a13.1,13.1,0,0,0-2.86,8.44q0,6.28,4.43,9.58T1015.29,463.64Z" transform="translate(-52.66 -270.55)"/><path d="M1124.57,496.54V348.93H1160l4.86,18.88,11.16-8.87a60,60,0,0,1,16.73-9.44,49.45,49.45,0,0,1,16.74-3.14,18.19,18.19,0,0,1,7.29,1,25.8,25.8,0,0,1,7.58,4.14v40.62q-8.3.3-16,1.29a92.47,92.47,0,0,0-17.16,4.15l-18,4.86v94.12Z" transform="translate(-52.66 -270.55)"/><path d="M1328.3,498.83a62.22,62.22,0,0,1-20.17-3.58,101.76,101.76,0,0,1-21.31-10.44l-12.3-8,11.73-29.75,9.44,5.15a39.82,39.82,0,0,0,9.58,3.86,38.34,38.34,0,0,0,9.58,1.29q10,0,16.6-3.86a23.07,23.07,0,0,0,9.72-11.59q3.15-7.72,3.15-19.45T1341,403a22.69,22.69,0,0,0-10.16-11.45q-6.86-3.71-16.87-3.72a57.37,57.37,0,0,0-9,.72,47.59,47.59,0,0,0-9,2.43l-8.29,2.58v67.22l-6.3,8.3-6.29,27.46h-36V285.43l48.63-9.16v98.41l-13.45-11.45,20-9.44a80.1,80.1,0,0,1,16.73-5.43,85.25,85.25,0,0,1,17.88-2q19.16,0,33.76,9.72A65.13,65.13,0,0,1,1385.37,383q8.14,17.16,8.15,39.76,0,22.32-8.15,39.62t-23,26.89Q1347.46,498.83,1328.3,498.83Z" transform="translate(-52.66 -270.55)"/><path d="M1487.09,499.11q-24.61,0-42-9.58a67.59,67.59,0,0,1-27-26.75q-9.59-17.16-9.58-40,0-23.16,10-40.33a68.94,68.94,0,0,1,27.75-26.6q17.73-9.45,41.76-9.44,24.32,0,41.91,9.58a66.33,66.33,0,0,1,27,26.75q9.45,17.16,9.44,40t-10,40a70,70,0,0,1-27.75,26.75Q1510.83,499.12,1487.09,499.11Zm.28-40.33a30.63,30.63,0,0,0,15.74-3.86,24.43,24.43,0,0,0,10-11.88q3.44-8,3.43-20.31,0-12.59-3.29-20.45a23.68,23.68,0,0,0-9.87-11.73q-6.59-3.85-16-3.86a30.79,30.79,0,0,0-15.59,3.86,25.78,25.78,0,0,0-10.44,11.73q-3.72,7.88-3.72,20.45,0,12.31,3.72,20.31a25.92,25.92,0,0,0,10.3,11.88A30.57,30.57,0,0,0,1487.37,458.78Z" transform="translate(-52.66 -270.55)"/><path d="M1576.76,496.54l-.57-30.33,67.8-78.66h-66.65V348.93h133v30.89L1644,457.92h66.94v38.62Z" transform="translate(-52.66 -270.55)"/><path d="M1770.94,498.83a61.81,61.81,0,0,1-22.89-4.29A39.78,39.78,0,0,1,1730.32,481q-6.87-9.3-6.87-23.32,0-18.87,11.59-29t35.61-15.31l42-9.44v-.57q.29-9.15-6.29-13.59t-21.74-4.43a175.82,175.82,0,0,0-18.31,1q-9.43,1-18.59,2.72l-7.44,1.43-7.15-30,9.15-3.43a228.6,228.6,0,0,1,27.46-7.72,127.42,127.42,0,0,1,26.61-2.86q29.17,0,46.91,14.73t17.74,43.34v46.91q0,7.16,3.86,10t14.73,4.29l-3.14,30.9c-2.68.57-5.39,1.09-8.16,1.57a43.16,43.16,0,0,1-7,.72q-16.59,0-26.46-6.44a43.39,43.39,0,0,1-15-16.16l-6.3,5.43a64.69,64.69,0,0,1-20.88,12.88A62,62,0,0,1,1770.94,498.83Zm14.87-35.19a37.71,37.71,0,0,0,10.16-1.57,41.88,41.88,0,0,0,11-5l5.72-3.15V428.46L1783,436.75q-7.73,2-10.58,5.58a13.1,13.1,0,0,0-2.86,8.44q0,6.28,4.43,9.58T1785.81,463.64Z" transform="translate(-52.66 -270.55)"/></svg>